<svg width="83" height="33" viewBox="0 0 83 33" fill="none" xmlns="http://www.w3.org/2000/svg">
<path d="M14.6 24H0.96L5.88 0.88H10.76L6.76 19.84H15.48L14.6 24ZM37.1681 19.12C36.9548 20.16 36.6881 21 36.3681 21.64C36.0748 22.2533 35.6748 22.7467 35.1681 23.12C34.6881 23.4667 34.0615 23.7067 33.2881 23.84C32.5148 23.9467 31.5548 24 30.4081 24H22.8081C20.9681 24 19.6881 23.8267 18.9681 23.48C18.2481 23.1067 17.8881 22.3733 17.8881 21.28C17.8881 20.6667 17.9815 19.9467 18.1681 19.12L19.7681 11.6C20.0081 10.56 20.2748 9.72 20.5681 9.08C20.8881 8.44 21.2881 7.94667 21.7681 7.6C22.2748 7.25333 22.9015 7.02667 23.6481 6.92C24.4215 6.78667 25.3681 6.72 26.4881 6.72H34.0881C35.0748 6.72 35.8881 6.77333 36.5281 6.88C37.1681 6.96 37.6748 7.10667 38.0481 7.32C38.4215 7.50667 38.6748 7.78667 38.8081 8.16C38.9681 8.50667 39.0481 8.93333 39.0481 9.44C39.0481 10.0533 38.9548 10.7733 38.7681 11.6L37.1681 19.12ZM32.6481 17.44L33.5281 13.28C33.6615 12.6133 33.7281 12.1733 33.7281 11.96C33.7281 11.5067 33.5681 11.2133 33.2481 11.08C32.9548 10.9467 32.3415 10.88 31.4081 10.88H27.4881C26.9281 10.88 26.4615 10.9067 26.0881 10.96C25.7415 10.9867 25.4481 11.08 25.2081 11.24C24.9948 11.4 24.8215 11.64 24.6881 11.96C24.5548 12.28 24.4348 12.72 24.3281 13.28L23.4481 17.44C23.3148 18.1067 23.2481 18.5467 23.2481 18.76C23.2481 19.2133 23.3948 19.5067 23.6881 19.64C24.0081 19.7733 24.6348 19.84 25.5681 19.84H29.4881C30.1015 19.84 30.5815 19.8133 30.9281 19.76C31.3015 19.7067 31.5948 19.6 31.8081 19.44C32.0215 19.2533 32.1815 19.0133 32.2881 18.72C32.4215 18.4 32.5415 17.9733 32.6481 17.44ZM56.5594 27.8C56.346 28.84 56.0794 29.6667 55.7594 30.28C55.466 30.92 55.066 31.4133 54.5594 31.76C54.0794 32.1333 53.4527 32.3733 52.6794 32.48C51.906 32.6133 50.946 32.68 49.7994 32.68H37.8794L38.7594 28.56H48.8394C49.426 28.56 49.906 28.5333 50.2794 28.48C50.6527 28.4267 50.946 28.3067 51.1594 28.12C51.3727 27.9333 51.5327 27.68 51.6394 27.36C51.7727 27.0667 51.8927 26.6533 51.9994 26.12L55.2394 10.84H49.3594C48.7194 10.84 48.2127 10.88 47.8394 10.96C47.466 11.0133 47.1727 11.1333 46.9594 11.32C46.7727 11.48 46.626 11.72 46.5194 12.04C46.4127 12.3333 46.306 12.7333 46.1994 13.24L45.2794 17.44C45.1727 17.9733 45.1194 18.4 45.1194 18.72C45.1194 19.1733 45.266 19.48 45.5594 19.64C45.8794 19.7733 46.506 19.84 47.4394 19.84H51.5994L50.7194 23.96H44.6794C42.8394 23.96 41.5594 23.7867 40.8394 23.44C40.1194 23.0667 39.7594 22.3467 39.7594 21.28C39.7594 20.6667 39.8527 19.9333 40.0394 19.08L41.6394 11.6C41.8794 10.56 42.146 9.72 42.4394 9.08C42.7594 8.41333 43.1594 7.90667 43.6394 7.56C44.146 7.21333 44.7727 6.98667 45.5194 6.88C46.2927 6.74667 47.2394 6.68 48.3594 6.68H61.0394L56.5594 27.8ZM80.9181 19.12C80.7048 20.16 80.4381 21 80.1181 21.64C79.8248 22.2533 79.4248 22.7467 78.9181 23.12C78.4381 23.4667 77.8115 23.7067 77.0381 23.84C76.2648 23.9467 75.3048 24 74.1581 24H66.5581C64.7181 24 63.4381 23.8267 62.7181 23.48C61.9981 23.1067 61.6381 22.3733 61.6381 21.28C61.6381 20.6667 61.7315 19.9467 61.9181 19.12L63.5181 11.6C63.7581 10.56 64.0248 9.72 64.3181 9.08C64.6381 8.44 65.0381 7.94667 65.5181 7.6C66.0248 7.25333 66.6515 7.02667 67.3981 6.92C68.1715 6.78667 69.1181 6.72 70.2381 6.72H77.8381C78.8248 6.72 79.6381 6.77333 80.2781 6.88C80.9181 6.96 81.4248 7.10667 81.7981 7.32C82.1715 7.50667 82.4248 7.78667 82.5581 8.16C82.7181 8.50667 82.7981 8.93333 82.7981 9.44C82.7981 10.0533 82.7048 10.7733 82.5181 11.6L80.9181 19.12ZM76.3981 17.44L77.2781 13.28C77.4115 12.6133 77.4781 12.1733 77.4781 11.96C77.4781 11.5067 77.3181 11.2133 76.9981 11.08C76.7048 10.9467 76.0915 10.88 75.1581 10.88H71.2381C70.6781 10.88 70.2115 10.9067 69.8381 10.96C69.4915 10.9867 69.1981 11.08 68.9581 11.24C68.7448 11.4 68.5715 11.64 68.4381 11.96C68.3048 12.28 68.1848 12.72 68.0781 13.28L67.1981 17.44C67.0648 18.1067 66.9981 18.5467 66.9981 18.76C66.9981 19.2133 67.1448 19.5067 67.4381 19.64C67.7581 19.7733 68.3848 19.84 69.3181 19.84H73.2381C73.8515 19.84 74.3315 19.8133 74.6781 19.76C75.0515 19.7067 75.3448 19.6 75.5581 19.44C75.7715 19.2533 75.9315 19.0133 76.0381 18.72C76.1715 18.4 76.2915 17.9733 76.3981 17.44Z" fill="#CD201F"/>
</svg>
